<svg xmlns="http://www.w3.org/2000/svg" viewBox="0 0 24 24" width="32" height="32" fill="#4CAF50">
  <path d="M12,2A2,2 0 0,1 14,4A2,2 0 0,1 12,6A2,2 0 0,1 10,4A2,2 0 0,1 12,2M12,7C13.1,7 14,7.9 14,9V14.5H15.5V22H12V14.5H10.5V9A2,2 0 0,1 12,7M5,9C6.1,9 7,9.9 7,11V16.5H8.5V22H5V16.5H3.5V11A2,2 0 0,1 5,9M5,3C6.1,3 7,3.9 7,5A2,2 0 0,1 5,7A2,2 0 0,1 3,5A2,2 0 0,1 5,3M19,3A2,2 0 0,1 21,5A2,2 0 0,1 19,7A2,2 0 0,1 17,5A2,2 0 0,1 19,3M19,9C20.1,9 21,9.9 21,11V16.5H22.5V22H19V16.5H17.5V11A2,2 0 0,1 19,9Z" />
</svg>
